HIERARCHY
ROOT Hips
{
	OFFSET 0.00 0.00 0.00
	CHANNELS 6 Xposition Yposition Zposition Zrotation Yrotation Xrotation
	JOINT Spine
	{
		OFFSET	0.0000	12.9474	1.3069
		CHANNELS 3 Zrotation Yrotation Xrotation
		JOINT Spine1
		{
			OFFSET	0.0000	11.6502	0.0897
			CHANNELS 3 Zrotation Yrotation Xrotation
			JOINT Spine2
			{
				OFFSET	0.0000	11.8996	-0.0200
				CHANNELS 3 Zrotation Yrotation Xrotation
				JOINT Neck
				{
					OFFSET	0.0000	29.8625	-6.8568
					CHANNELS 3 Zrotation Yrotation Xrotation
					JOINT Head
					{
						OFFSET	0.0000	15.8127	4.5046
						CHANNELS 3 Zrotation Yrotation Xrotation
						End Site
						{
							OFFSET 0.0000 16.9142 8.5489
						}
					}
				}
				JOINT LeftShoulder
				{
					OFFSET	15.6932	30.5276	-14.8855
					CHANNELS 3 Zrotation Yrotation Xrotation
					JOINT LeftArm
					{
						OFFSET	15.1106	-10.2541	-0.0017
						CHANNELS 3 Zrotation Yrotation Xrotation
						JOINT LeftForeArm
						{
							OFFSET	31.4047	-20.2208	-1.5857
							CHANNELS 3 Zrotation Yrotation Xrotation
							JOINT LeftHand
							{
								OFFSET	33.6957	-19.2580	15.6991
								CHANNELS 3 Zrotation Yrotation Xrotation
								JOINT LeftHandMiddle1
								{
									OFFSET	11.0571	-10.4817	9.4547
									CHANNELS 3 Zrotation Yrotation Xrotation
									JOINT LeftHandMiddle2
									{
										OFFSET	3.4215	-5.0087	3.1670
										CHANNELS 3 Zrotation Yrotation Xrotation
										JOINT LeftHandMiddle3
										{
											OFFSET	1.8148	-4.7192	2.5351
											CHANNELS 3 Zrotation Yrotation Xrotation
											End Site
											{
												OFFSET 0.5564 -3.7387 2.3634
											}
										}
									}
								}
								JOINT LeftHandThumb1
								{
									OFFSET	-1.0031	-1.2668	10.5842
									CHANNELS 3 Zrotation Yrotation Xrotation
									JOINT LeftHandThumb2
									{
										OFFSET	0.2584	0.1803	6.9748
										CHANNELS 3 Zrotation Yrotation Xrotation
										JOINT LeftHandThumb3
										{
											OFFSET	0.4558	-1.3006	4.2279
											CHANNELS 3 Zrotation Yrotation Xrotation
											End Site
											{
												OFFSET 0.3543 -2.2515 4.8270
											}
										}
									}
								}
								JOINT LeftHandIndex1
								{
									OFFSET	10.1078	-6.3687	14.1094
									CHANNELS 3 Zrotation Yrotation Xrotation
									JOINT LeftHandIndex2
									{
										OFFSET	3.1194	-3.8277	3.9230
										CHANNELS 3 Zrotation Yrotation Xrotation
										JOINT LeftHandIndex3
										{
											OFFSET	1.3756	-4.1963	2.9070
											CHANNELS 3 Zrotation Yrotation Xrotation
											End Site
											{
												OFFSET 0.6727 -3.7890 2.5988
											}
										}
									}
								}
								JOINT LeftHandRing1
								{
									OFFSET	10.0847	-13.6899	4.3344
									CHANNELS 3 Zrotation Yrotation Xrotation
									JOINT LeftHandRing2
									{
										OFFSET	3.2413	-5.1039	1.8840
										CHANNELS 3 Zrotation Yrotation Xrotation
										JOINT LeftHandRing3
										{
											OFFSET	1.5323	-5.0397	1.9270
											CHANNELS 3 Zrotation Yrotation Xrotation
											End Site
											{
												OFFSET 0.8809 -4.1420 1.4919
											}
										}
									}
								}
								JOINT LeftHandPinky1
								{
									OFFSET	9.0408	-16.1777	-0.5730
									CHANNELS 3 Zrotation Yrotation Xrotation
									JOINT LeftHandPinky2
									{
										OFFSET	2.5791	-4.9057	0.6134
										CHANNELS 3 Zrotation Yrotation Xrotation
										JOINT LeftHandPinky3
										{
											OFFSET	0.8052	-3.7871	1.3188
											CHANNELS 3 Zrotation Yrotation Xrotation
											End Site
											{
												OFFSET 0.2188 -3.8976 1.6089
											}
										}
									}
								}
							}
						}
					}
				}
				JOINT RightShoulder
				{
					OFFSET	-15.6932	30.5276	-14.8855
					CHANNELS 3 Zrotation Yrotation Xrotation
					JOINT RightArm
					{
						OFFSET	-15.1106	-10.2541	-0.0017
						CHANNELS 3 Zrotation Yrotation Xrotation
						JOINT RightForeArm
						{
							OFFSET	-31.4047	-20.2208	-1.5857
							CHANNELS 3 Zrotation Yrotation Xrotation
							JOINT RightHand
							{
								OFFSET	-33.6957	-19.2580	15.6991
								CHANNELS 3 Zrotation Yrotation Xrotation
								JOINT RightHandThumb1
								{
									OFFSET	1.0031	-1.2668	10.5842
									CHANNELS 3 Zrotation Yrotation Xrotation
									JOINT RightHandThumb2
									{
										OFFSET	-0.2584	0.1803	6.9748
										CHANNELS 3 Zrotation Yrotation Xrotation
										JOINT RightHandThumb3
										{
											OFFSET	-0.4558	-1.3006	4.2279
											CHANNELS 3 Zrotation Yrotation Xrotation
											End Site
											{
												OFFSET -0.3543 -2.2515 4.8270
											}
										}
									}
								}
								JOINT RightHandIndex1
								{
									OFFSET	-10.1078	-6.3687	14.1094
									CHANNELS 3 Zrotation Yrotation Xrotation
									JOINT RightHandIndex2
									{
										OFFSET	-3.1194	-3.8277	3.9230
										CHANNELS 3 Zrotation Yrotation Xrotation
										JOINT RightHandIndex3
										{
											OFFSET	-1.3756	-4.1963	2.9070
											CHANNELS 3 Zrotation Yrotation Xrotation
											End Site
											{
												OFFSET -0.6727 -3.7890 2.5988
											}
										}
									}
								}
								JOINT RightHandMiddle1
								{
									OFFSET	-11.0571	-10.4817	9.4547
									CHANNELS 3 Zrotation Yrotation Xrotation
									JOINT RightHandMiddle2
									{
										OFFSET	-3.4215	-5.0087	3.1670
										CHANNELS 3 Zrotation Yrotation Xrotation
										JOINT RightHandMiddle3
										{
											OFFSET	-1.8148	-4.7192	2.5351
											CHANNELS 3 Zrotation Yrotation Xrotation
											End Site
											{
												OFFSET -0.5564 -3.7387 2.3634
											}
										}
									}
								}
								JOINT RightHandRing1
								{
									OFFSET	-10.0847	-13.6899	4.3344
									CHANNELS 3 Zrotation Yrotation Xrotation
									JOINT RightHandRing2
									{
										OFFSET	-3.2413	-5.1039	1.8840
										CHANNELS 3 Zrotation Yrotation Xrotation
										JOINT RightHandRing3
										{
											OFFSET	-1.5323	-5.0397	1.9270
											CHANNELS 3 Zrotation Yrotation Xrotation
											End Site
											{
												OFFSET -0.8809 -4.1420 1.4919
											}
										}
									}
								}
								JOINT RightHandPinky1
								{
									OFFSET	-9.0408	-16.1777	-0.5730
									CHANNELS 3 Zrotation Yrotation Xrotation
									JOINT RightHandPinky2
									{
										OFFSET	-2.5791	-4.9057	0.6134
										CHANNELS 3 Zrotation Yrotation Xrotation
										JOINT RightHandPinky3
										{
											OFFSET	-0.8052	-3.7871	1.3188
											CHANNELS 3 Zrotation Yrotation Xrotation
											End Site
											{
												OFFSET -0.2188 -3.8976 1.6089
											}
										}
									}
								}
							}
						}
					}
				}
			}
		}
	}
	JOINT LeftUpLeg
	{
		OFFSET	15.6585	-8.4068	1.4670
		CHANNELS 3 Zrotation Yrotation Xrotation
		JOINT LeftLeg
		{
			OFFSET	4.8126	-36.5793	1.4225
			CHANNELS 3 Zrotation Yrotation Xrotation
			JOINT LeftFoot
			{
				OFFSET	3.3315	-36.9309	-9.3826
				CHANNELS 3 Zrotation Yrotation Xrotation
				JOINT LeftToeBase
				{
					OFFSET	5.8406	-16.0536	19.7570
					CHANNELS 3 Zrotation Yrotation Xrotation
					End Site
					{
						OFFSET 2.6829 1.8767 15.4928
					}
				}
			}
		}
	}
	JOINT RightUpLeg
	{
		OFFSET	-15.6585	-8.4068	1.4670
		CHANNELS 3 Zrotation Yrotation Xrotation
		JOINT RightLeg
		{
			OFFSET	-4.8126	-36.5793	1.4225
			CHANNELS 3 Zrotation Yrotation Xrotation
			JOINT RightFoot
			{
				OFFSET	-3.3315	-36.9309	-9.3826
				CHANNELS 3 Zrotation Yrotation Xrotation
				JOINT RightToeBase
				{
					OFFSET	-5.8406	-16.0536	19.7570
					CHANNELS 3 Zrotation Yrotation Xrotation
					End Site
					{
						OFFSET -2.6829 1.8767 15.4928
					}
				}
			}
		}
	}
}
MOTION
Frames: 4
Frame Time: 0.0333333
1.2112 86.8147 -0.1483 0.8834 -24.8492 -2.8489 4.3543 17.3263 3.3759 3.6035 2.1937 3.0371 3.6039 2.2724 2.9940 -4.1596 1.3456 2.0740 -7.6728 2.4726 5.2831 -1.7226 -11.5119 4.0420 -27.4211 -23.7596 -29.8197 85.6557 -55.5036 -123.0002 34.4316 -23.4468 42.5648 -72.5909 -34.0922 27.1994 -80.7578 -29.2094 25.8492 -38.5528 -16.6810 11.6454 -0.5519 7.5733 38.9864 -5.9302 -3.1867 -0.5005 0.7399 30.9047 43.0844 -72.2626 -27.6097 36.4654 -74.8136 -34.8519 32.4193 -42.5992 -21.4190 14.4955 -71.3900 -40.0510 17.9546 -77.7472 -24.3789 14.1567 -47.0731 -17.8996 3.3289 -71.9433 -45.5574 9.7719 -74.5653 -19.8316 9.0339 -40.6003 -15.1826 2.9090 -0.1093 20.0123 1.4035 15.3583 39.6785 -24.9292 -67.1108 59.6312 -101.1234 -45.6596 -3.4178 24.7177 12.7790 -14.0658 40.1991 -2.1625 0.8571 -6.2058 -32.0998 -10.1099 52.5490 79.4717 27.7012 40.9005 70.7603 34.6581 29.7818 44.0364 21.8315 15.2344 80.4118 34.1961 31.8537 76.9332 28.9574 23.9403 39.7429 17.7427 12.1838 78.8565 40.1709 22.4831 75.1117 23.9481 13.2618 48.9131 18.7397 3.8974 76.6988 46.5128 10.9989 72.0450 15.1611 7.7760 44.1853 16.3746 3.5439 6.1343 13.8303 -44.5540 0.6731 -7.4187 30.8640 -13.1757 -1.6919 11.0998 -0.0000 -0.0000 -1.0635 -19.3222 -14.7690 9.0259 -1.5442 -6.5148 28.0004 18.7206 4.6931 -25.9581 0.0000 0.0000 -0.5050 
2.0168 87.2193 0.6970 0.9960 -25.2404 -3.2785 3.9552 17.2651 3.9872 3.1445 2.1125 3.4044 3.1539 2.1663 3.3718 -3.7825 1.1844 2.0488 -7.7778 2.1273 5.2090 -1.8102 -11.9906 4.1773 -26.0596 -24.5309 -31.0706 83.6482 -56.2101 -120.5753 33.4280 -24.0792 42.4160 -72.5909 -34.0922 27.1994 -80.7577 -29.2094 25.8492 -38.5528 -16.6810 11.6454 -0.5519 7.5733 38.9864 -5.9302 -3.1867 -0.5005 0.7399 30.9047 43.0844 -72.2626 -27.6097 36.4654 -74.8136 -34.8519 32.4193 -42.5992 -21.4190 14.4954 -71.3900 -40.0510 17.9546 -77.7472 -24.3789 14.1567 -47.0731 -17.8996 3.3289 -71.9433 -45.5574 9.7719 -74.5652 -19.8316 9.0339 -40.6003 -15.1826 2.9090 -0.5738 19.5880 1.2138 17.3867 39.3340 -23.3989 -68.3612 59.4949 -102.5734 -46.3684 -2.2062 23.3076 12.7790 -14.0658 40.1991 -2.1625 0.8571 -6.2058 -32.0998 -10.1099 52.5490 79.4717 27.7012 40.9005 70.7603 34.6581 29.7818 44.0364 21.8315 15.2344 80.4118 34.1961 31.8537 76.9332 28.9574 23.9403 39.7429 17.7427 12.1838 78.8565 40.1709 22.4831 75.1117 23.9481 13.2618 48.9131 18.7397 3.8974 76.6988 46.5128 10.9989 72.0451 15.1611 7.7760 44.1853 16.3746 3.5439 5.4120 13.9364 -42.9570 0.2269 -7.2051 30.7191 -12.1087 -3.0122 13.8897 0.0000 -0.0000 -0.5850 -20.6772 -15.2196 12.7617 -2.2202 -5.8806 23.2108 18.5693 4.1065 -24.0311 0.0000 -0.0000 -2.4077 
2.9103 87.3463 1.7171 1.8730 -25.6384 -4.1201 3.4677 17.3253 4.3385 2.6043 2.1677 3.6180 2.6189 2.2039 3.5931 -3.4588 1.0418 2.1950 -7.9666 1.8762 5.1399 -1.9571 -12.0542 4.2195 -25.1656 -25.3748 -31.7291 79.9065 -57.3300 -116.1041 32.5092 -24.2667 42.4022 -72.5909 -34.0922 27.1994 -80.7577 -29.2094 25.8492 -38.5528 -16.6810 11.6454 -0.5519 7.5733 38.9864 -5.9302 -3.1868 -0.5005 0.7398 30.9047 43.0844 -72.2625 -27.6097 36.4654 -74.8136 -34.8519 32.4193 -42.5992 -21.4190 14.4955 -71.3900 -40.0510 17.9546 -77.7472 -24.3789 14.1567 -47.0731 -17.8996 3.3289 -71.9433 -45.5574 9.7719 -74.5652 -19.8316 9.0339 -40.6003 -15.1826 2.9090 -0.4456 19.5072 1.2544 18.9768 39.1358 -22.0994 -69.2383 59.3888 -103.5917 -46.9716 -1.4851 22.6714 12.7790 -14.0658 40.1991 -2.1625 0.8571 -6.2058 -32.0998 -10.1099 52.5490 79.4717 27.7012 40.9005 70.7603 34.6581 29.7818 44.0364 21.8315 15.2344 80.4118 34.1962 31.8537 76.9332 28.9574 23.9404 39.7429 17.7427 12.1838 78.8565 40.1709 22.4831 75.1117 23.9481 13.2618 48.9131 18.7397 3.8974 76.6988 46.5128 10.9989 72.0450 15.1611 7.7760 44.1853 16.3746 3.5439 4.3505 13.7929 -42.0578 -0.9249 -6.3322 33.6263 -10.0245 -3.5881 12.2316 -0.0000 -0.0000 -0.3964 -23.9631 -15.8889 13.7551 -2.4095 -3.9659 23.5288 19.5490 3.4741 -21.1711 0.0000 -0.0000 -7.1780 
3.8527 87.7898 2.7719 2.6686 -27.0697 -4.4120 3.0385 17.5336 4.3806 2.1677 2.4073 3.6285 2.1850 2.4347 3.6068 -3.3285 1.0010 2.3656 -8.3310 1.9898 5.0807 -2.1564 -11.7083 4.1676 -25.0232 -25.8050 -31.6185 74.6339 -58.5358 -109.8858 32.2705 -24.5959 42.8518 -72.5909 -34.0922 27.1994 -80.7577 -29.2094 25.8492 -38.5528 -16.6810 11.6454 -0.5519 7.5733 38.9864 -5.9302 -3.1867 -0.5005 0.7398 30.9047 43.0844 -72.2626 -27.6097 36.4654 -74.8136 -34.8519 32.4193 -42.5992 -21.4190 14.4955 -71.3900 -40.0510 17.9546 -77.7472 -24.3789 14.1567 -47.0731 -17.8996 3.3289 -71.9433 -45.5574 9.7719 -74.5652 -19.8316 9.0339 -40.6003 -15.1826 2.9090 0.1965 19.7843 1.5017 19.5827 39.1820 -21.3375 -69.2245 59.3906 -103.5757 -47.2823 -1.0691 22.6273 12.7790 -14.0658 40.1991 -2.1625 0.8572 -6.2058 -32.0998 -10.1099 52.5490 79.4717 27.7012 40.9005 70.7603 34.6581 29.7818 44.0364 21.8315 15.2344 80.4118 34.1961 31.8537 76.9332 28.9574 23.9404 39.7429 17.7427 12.1838 78.8565 40.1709 22.4831 75.1117 23.9481 13.2619 48.9131 18.7397 3.8974 76.6988 46.5128 10.9989 72.0450 15.1611 7.7760 44.1853 16.3746 3.5439 3.5025 13.5666 -40.8810 -1.6174 -5.6700 36.4348 -8.4221 -3.3976 8.3845 -0.0000 0.0000 -0.2093 -26.4736 -16.4035 11.4552 -3.0818 -1.1485 26.5712 19.9043 2.4744 -17.2640 0.0000 -0.0000 -12.7953 
